<svg width="28" height="35" viewBox="0 0 28 35" fill="none" xmlns="http://www.w3.org/2000/svg">
<path fill-rule="evenodd" clip-rule="evenodd" d="M6.66662 7.5C6.66662 5.51088 7.4568 3.60322 8.86332 2.1967C10.2698 0.790176 12.1775 0 14.1666 0C16.1557 0 18.0634 0.790176 19.4699 2.1967C20.8764 3.60322 21.6666 5.51088 21.6666 7.5C21.6666 9.48912 20.8764 11.3968 19.4699 12.8033C18.0634 14.2098 16.1557 15 14.1666 15C12.1775 15 10.2698 14.2098 8.86332 12.8033C7.4568 11.3968 6.66662 9.48912 6.66662 7.5ZM0.41829 31.0083C0.47449 27.3991 1.94769 23.9568 4.51989 21.4243C7.09209 18.8918 10.557 17.4724 14.1666 17.4724C17.7763 17.4724 21.2412 18.8918 23.8134 21.4243C26.3856 23.9568 27.8588 27.3991 27.915 31.0083C27.9193 31.2513 27.8527 31.4903 27.7234 31.696C27.594 31.9017 27.4075 32.0653 27.1866 32.1667C23.1019 34.0395 18.6602 35.0061 14.1666 35C9.52329 35 5.11162 33.9867 1.14662 32.1667C0.925766 32.0653 0.739249 31.9017 0.609893 31.696C0.480538 31.4903 0.413954 31.2513 0.41829 31.0083Z" fill="black"/>
</svg>
